# xmcd
#
# Track frame offsets:
#	150
#	14802
#	25582
#	38642
#	51912
#	65477
#	79222
#	93320
#	107462
#	122322
#	137447
#	150205
#
# Disc length: 2217
#
# Revision: 2
# Processed by: cddbd v1.5.1PL0 Copyright (c) Steve Scherf et al.
# Submitted via: CDex 1.50Beta7
# Normalized: r0:TDELIM( - ),TSWAP
#
DISCID=8608a70c
DTITLE=Various Artist - Jazz Classics (vol 2)
DYEAR=1998
DGENRE=Jazz
TTITLE0=Gene Krupa - Bonaparte's Retreat
TTITLE1=Bud Powell - Salt Peanuts
TTITLE2=Lennie Tristano - (I Don't Stand A) Ghost of a Chance
TTITLE3=Benny Carter - Sunday Afternoon
TTITLE4=Oscar Peterson - My Blue Heaven
TTITLE5=Coleman Hawkins - Body and Soul
TTITLE6=Dizzy Gillespie - Night in Tunisia
TTITLE7=The Metronome All-Stars - Overtime
TTITLE8=Count Basie - Bassie's Basement
TTITLE9=Lena Horne - Stormy Weather (Kepps Raining All The Time)
TTITLE10=Art Tatum - Out of Nowhere
TTITLE11=Jack Teagarden and Louis Armstrong - St. James Infirmary
EXTD=YEAR: 1998
EXTT0=
EXTT1=
EXTT2=
EXTT3=
EXTT4=
EXTT5=
EXTT6=
EXTT7=
EXTT8=
EXTT9=
EXTT10=
EXTT11=
PLAYORDER=
